<svg width="20" height="20" viewBox="0 0 20 20" fill="none" xmlns="http://www.w3.org/2000/svg">
<path d="M2.91821 11.9137C2.91821 12.6036 3.06962 13.1332 3.26753 13.4536C3.52701 13.8733 3.91402 14.0511 4.30858 14.0511C4.81748 14.0511 5.28303 13.9248 6.1802 12.684C6.89894 11.6894 7.74585 10.2934 8.31569 9.41822L9.28072 7.9355C9.95109 6.90576 10.727 5.76105 11.6166 4.98513C12.3429 4.35183 13.1264 4 13.9149 4C15.2386 4 16.4996 4.76712 17.4646 6.20586C18.5207 7.78157 19.0334 9.76628 19.0334 11.8144C19.0334 13.032 18.7934 13.9267 18.385 14.6335C17.9905 15.3171 17.2215 16 15.9278 16V14.0511C17.0355 14.0511 17.3119 13.0333 17.3119 11.8685C17.3119 10.2086 16.9249 8.36649 16.0723 7.05026C15.4673 6.11665 14.6832 5.54618 13.8206 5.54618C12.8876 5.54618 12.1368 6.24984 11.2931 7.5045C10.8445 8.1711 10.384 8.98345 9.8669 9.9001L9.29768 10.9085C8.15423 12.9359 7.8646 13.3977 7.29287 14.1598C6.29077 15.4942 5.43507 16 4.30858 16C2.97224 16 2.12722 15.4214 1.60386 14.5493C1.17664 13.8387 0.966797 12.9064 0.966797 11.844L2.91821 11.9137Z" fill="#0081FB"/>
<path d="M2.50586 6.34345C3.40052 4.9644 4.69162 4 6.17245 4C7.03005 4 7.88261 4.25382 8.77287 4.98073C9.74669 5.7755 10.7846 7.08419 12.0795 9.24104L12.5438 10.0151C13.6646 11.8823 14.3023 12.8429 14.6755 13.2959C15.1555 13.8777 15.4916 14.0511 15.9283 14.0511C17.0359 14.0511 17.3123 13.0333 17.3123 11.8685L19.0338 11.8144C19.0338 13.032 18.7938 13.9267 18.3854 14.6335C17.9909 15.3171 17.2219 16 15.9283 16C15.1241 16 14.4116 15.8253 13.6238 15.0821C13.0181 14.5116 12.31 13.4982 11.7653 12.5872L10.145 9.88063C9.33203 8.5223 8.58627 7.50953 8.15465 7.05089C7.69036 6.5577 7.0935 5.96209 6.14104 5.96209C5.37015 5.96209 4.71549 6.50304 4.16764 7.33047L2.50586 6.34345Z" fill="url(#paint0_linear_16026_95995)"/>
<path d="M6.14062 5.96209C5.36973 5.96209 4.71507 6.50304 4.16721 7.33047C3.39255 8.49968 2.91821 10.2413 2.91821 11.9137C2.91821 12.6036 3.06962 13.1332 3.26753 13.4536L1.60386 14.5493C1.17664 13.8387 0.966797 12.9064 0.966797 11.844C0.966797 9.91204 1.49706 7.89843 2.50543 6.34345C3.40009 4.9644 4.69119 4 6.17203 4L6.14062 5.96209Z" fill="url(#paint1_linear_16026_95995)"/>
<defs>
<linearGradient id="paint0_linear_16026_95995" x1="4.79968" y1="11.3508" x2="17.2395" y2="11.9791" gradientUnits="userSpaceOnUse">
<stop stop-color="#0064E1"/>
<stop offset="0.4" stop-color="#0064E1"/>
<stop offset="0.83" stop-color="#0073EE"/>
<stop offset="1" stop-color="#0082FB"/>
</linearGradient>
<linearGradient id="paint1_linear_16026_95995" x1="3.79402" y1="12.733" x2="3.79402" y2="8.14659" gradientUnits="userSpaceOnUse">
<stop stop-color="#0082FB"/>
<stop offset="1" stop-color="#0064E0"/>
</linearGradient>
</defs>
</svg>
