<svg width="20" height="20" viewBox="0 0 20 20" fill="none" xmlns="http://www.w3.org/2000/svg">
<path fill-rule="evenodd" clip-rule="evenodd" d="M2.82692 3.7217C4.26505 3.33335 9.99497 3.33334 9.99497 3.33334C9.99497 3.33334 15.7362 3.33336 17.1743 3.74525C17.9557 3.95708 18.5784 4.60423 18.7823 5.41624C19.1786 6.9108 19.1673 10.0177 19.1673 10.0177C19.1673 10.0177 19.1673 13.1128 18.7823 14.5956C18.5784 15.4193 17.9557 16.0547 17.1743 16.2783C15.7362 16.6667 9.99497 16.6667 9.99497 16.6667C9.99497 16.6667 4.27638 16.6667 2.82692 16.2665C2.04557 16.0429 1.42284 15.3958 1.20768 14.5838C0.833993 13.1127 0.833984 10.0059 0.833984 10.0059C0.833984 10.0059 0.833993 6.9108 1.20768 5.41624C1.42284 4.60423 2.05689 3.9453 2.82692 3.7217ZM8.33398 13.3333L13.334 10.0069L8.33398 6.66668V13.3333Z" fill="#F63535"/>
</svg>
